<?xml version="1.0" standalone="no"?><!DOCTYPE svg PUBLIC "-//W3C//DTD SVG 1.1//EN" "http://www.w3.org/Graphics/SVG/1.1/DTD/svg11.dtd"><svg t="1587715762194" class="icon" viewBox="0 0 1024 1024" version="1.1" xmlns="http://www.w3.org/2000/svg" p-id="3017" xmlns:xlink="http://www.w3.org/1999/xlink" width="200" height="200"><defs><style type="text/css"></style></defs><path d="M881.777778 113.777778 170.666667 113.777778l0 85.333333 711.111111 0L881.777778 113.777778zM824.888889 625.777778 824.888889 284.444444 227.555556 284.444444l0 341.333333L824.888889 625.777778zM312.888889 369.777778l426.666667 0 0 170.666667L312.888889 540.444444 312.888889 369.777778zM711.111111 796.444444c27.505778-42.126222 45.056-81.436444 69.091556-136.874667l-91.960889-33.507556C664.348444 691.740444 657.464889 742.286222 625.777778 796.444444l-170.666667 0c-26.510222-70.172444-66.730667-120.689778-100.295111-170.353778l-84.565333 33.507556C305.123556 711.907556 348.216889 751.104 369.777778 796.444444L142.222222 796.444444l0 85.333333 768 0 0-85.333333L711.111111 796.444444z" p-id="3018" fill="#2c2c2c"></path></svg>