<?xml version="1.0" standalone="no"?><!DOCTYPE svg PUBLIC "-//W3C//DTD SVG 1.1//EN" "http://www.w3.org/Graphics/SVG/1.1/DTD/svg11.dtd"><svg t="1587778716496" class="icon" viewBox="0 0 1024 1024" version="1.1" xmlns="http://www.w3.org/2000/svg" p-id="5022" xmlns:xlink="http://www.w3.org/1999/xlink" width="200" height="200"><defs><style type="text/css"></style></defs><path d="M693.1712 350.2848c11.776 0 23.3984 0.8448 34.944 2.0992C696.7552 208.9728 540.6208 102.4 362.4448 102.4 163.2 102.4 0 235.776 0 405.1456c0 97.792 54.2976 178.0224 145.0496 240.3072L108.8 752.4864l126.6688-62.3872c45.3632 8.8576 81.7152 17.8944 126.976 17.8944 11.3664 0 22.6816-0.5376 33.8432-1.408a258.9952 258.9952 0 0 1-11.1616-74.5472c-0.0512-155.52 135.936-281.7536 308.0448-281.7536z m-194.8416-96.512c27.2896 0 45.312 17.6128 45.312 44.4416 0 26.6752-18.0736 44.544-45.312 44.544-27.136 0-54.4512-17.8688-54.4512-44.544 0-26.7776 27.3152-44.4416 54.4512-44.4416z m-253.696 88.9856c-27.136 0-54.6048-17.8688-54.6048-44.544 0-26.7776 27.392-44.4416 54.6048-44.4416 27.1616 0 45.2608 17.6128 45.2608 44.4416 0 26.6752-18.048 44.544-45.2608 44.544zM1024 627.712c0-142.2848-144.9984-258.304-307.8912-258.304-172.4416 0-308.2752 115.968-308.2752 258.304 0 142.5408 135.8336 258.304 308.2752 258.304 36.096 0 72.4992-8.96 108.7488-17.8944L924.2624 921.6l-27.264-88.96C969.8048 779.0848 1024 707.968 1024 627.7376z m-407.8336-44.544c-18.048 0-36.224-17.664-36.224-35.6352 0-17.7152 18.176-35.5328 36.224-35.5328 27.392 0 45.3632 17.8688 45.3632 35.5328 0.0256 17.9968-17.92 35.6096-45.3632 35.6096z m199.424 0c-17.9712 0-36.0192-17.664-36.0192-35.6352 0-17.7152 18.0992-35.5328 35.9936-35.5328 27.136 0 45.3376 17.8688 45.3376 35.5328 0 17.9968-18.176 35.6096-45.312 35.6096z" fill="#0FB576" p-id="5023"></path></svg>