<?xml version="1.0" standalone="no"?><!DOCTYPE svg PUBLIC "-//W3C//DTD SVG 1.1//EN" "http://www.w3.org/Graphics/SVG/1.1/DTD/svg11.dtd"><svg t="1587778642861" class="icon" viewBox="0 0 1280 1024" version="1.1" xmlns="http://www.w3.org/2000/svg" p-id="3279" xmlns:xlink="http://www.w3.org/1999/xlink" width="250" height="200"><defs><style type="text/css"></style></defs><path d="M1090.688 622.4128c-29.44-87.3472-119.808-119.2448-140.3648-121.1392-20.5824-1.8944-39.2192-13.1072-25.6-36.2752 13.6704-23.1424 38.8608-90.5728-9.6-138.0352-48.4608-47.6416-154.3936-29.6192-229.376 1.152-74.8032 30.7456-70.784 9.2928-68.48-11.776 2.5088-22.2208 42.88-146.3808-80.5632-161.3824C374.9888 135.3984 167.5264 333.056 94.2592 446.976-16.4864 619.008 1.024 735.3856 1.024 735.3856h0.768C15.0528 896.0256 254.6432 1024 548.2496 1024c252.4672 0 465.152-94.7456 528-223.488 0 0 0.2048-0.5632 0.768-1.536a192 192 0 0 0 14.6176-42.496c8.8576-34.56 15.5904-84.6848-0.9472-134.0672zM511.9232 953.7536c-209.024 0-378.624-110.8992-378.624-247.6032 0-136.704 169.3952-247.6032 378.624-247.6032 208.9984 0 378.5984 110.8992 378.5984 247.6032 0 136.8832-169.6 247.6032-378.624 247.6032z" fill="#E71F19" p-id="3280"></path><path d="M1022.7712 407.0912c3.84 1.7408 7.936 2.5088 11.9808 2.5088 12.0064 0 23.6288-7.168 28.4416-18.944 7.936-18.7392 12.0064-38.656 12.0064-59.3408C1075.2 247.424 1006.8992 179.2 922.88 179.2a151.552 151.552 0 0 0-59.2128 11.9808c-15.6928 6.5792-23.04 24.7552-16.4608 40.6016 6.5792 15.6416 24.7808 22.9888 40.6528 16.4096 11.2128-4.6336 23.04-7.168 35.2256-7.168 49.92 0 90.368 40.6272 90.368 90.2912 0 12.1856-2.304 23.9616-7.168 35.1744-3.2512 7.5776-3.328 16.128-0.256 23.7824 3.0976 7.6288 9.1392 13.696 16.7168 16.7936v0.0256z" fill="#F5AA15" p-id="3281"></path><path d="M926.976 0c-34.2272 0-68.0704 4.9664-100.5568 14.4896a45.824 45.824 0 0 0-30.976 56.7808 45.9776 45.9776 0 0 0 56.9856 30.8992 264.832 264.832 0 0 1 74.5216-10.6752c143.9488 0 261.12 116.8384 261.12 260.352 0 25.728-3.84 51.2512-11.1104 75.648A45.6448 45.6448 0 0 0 1220.9408 486.4c19.6864 0 37.8368-12.7744 43.9552-32.4096a353.28 353.28 0 0 0 15.104-102.144C1279.8208 157.7984 1121.536 0 926.976 0z" fill="#F5AA15" p-id="3282"></path><path d="M486.4 563.2c-113.152 0-204.8 80.128-204.8 179.2s91.648 179.2 204.8 179.2 204.8-80.128 204.8-179.2-91.6736-179.2-204.8-179.2z m-66.8928 295.6032a71.808 71.808 0 0 1-71.7824-71.7568 71.8336 71.8336 0 0 1 71.7824-71.7568 71.8336 71.8336 0 0 1 71.7568 71.7568 71.8336 71.8336 0 0 1-71.7568 71.7568z m134.1952-129.28c-8.576 15.0272-25.9584 21.248-38.6304 13.824-12.672-7.168-15.7952-25.344-7.2192-40.3456 8.6016-15.0016 25.9584-21.248 38.6304-13.824 12.672 7.3984 15.7952 25.5232 7.2192 40.3456z" fill="#040000" p-id="3283"></path></svg>